# MagicaVoxel @ Ephtracy

# group
o 

# material
mtllib CrossyChicken.mtl
usemtl palette

# normals
vn -1 0 0
vn 1 0 0
vn 0 0 1
vn 0 0 -1
vn 0 -1 0
vn 0 1 0

# texcoords
vt 0.0917969 0.5
vt 0.103516 0.5
vt 0.958984 0.5
vt 0.994141 0.5

# verts
v -0.6 0.6 0.4
v -0.6 0.6 -0.1
v -0.6 0.9 0.4
v -0.6 0.9 -0.1
v -0.4 0 0.6
v -0.4 0 0.1
v -0.4 0.1 0.6
v -0.4 0.1 0.1
v -0.3 0.1 0.3
v -0.3 0.1 0.2
v -0.3 0.5 0.6
v -0.3 0.5 0.3
v -0.3 0.5 0.2
v -0.3 0.5 -0.5
v -0.3 0.6 0.4
v -0.3 0.6 -0.1
v -0.3 0.9 0.4
v -0.3 0.9 -0.1
v -0.3 0.9 -0.5
v -0.3 1.3 0.4
v -0.3 1.3 0.3
v -0.3 1.4 0.4
v -0.3 1.4 0.3
v -0.3 1.6 0.6
v -0.3 1.6 -0.1
v -0.2 0 0.6
v -0.2 0 0.5
v -0.2 0.1 0.6
v -0.2 0.1 0.5
v -0.1 1 0.7
v -0.1 1 0.6
v -0.1 1.1 0.8
v -0.1 1.1 0.7
v -0.1 1.1 0.6
v -0.1 1.3 0.8
v -0.1 1.3 0.6
v -0.1 1.6 0.5
v -0.1 1.6 -5.96046e-08
v -0.1 1.8 0.5
v -0.1 1.8 -5.96046e-08
v 0.1 0 0.6
v 0.1 0 0.1
v 0.1 0.1 0.6
v 0.1 0.1 0.1
v 0.2 0.1 0.3
v 0.2 0.1 0.2
v 0.2 0.5 0.3
v 0.2 0.5 0.2
v 0.3 0 0.6
v 0.3 0 0.5
v 0.3 0.1 0.6
v 0.3 0.1 0.5
v -0.3 0 0.6
v -0.3 0 0.5
v -0.3 0.1 0.6
v -0.3 0.1 0.5
v -0.2 0.1 0.3
v -0.2 0.1 0.2
v -0.2 0.5 0.3
v -0.2 0.5 0.2
v -0.1 0 0.6
v -0.1 0 0.1
v -0.1 0.1 0.6
v -0.1 0.1 0.1
v 0.1 1 0.7
v 0.1 1 0.6
v 0.1 1.1 0.8
v 0.1 1.1 0.7
v 0.1 1.1 0.6
v 0.1 1.3 0.8
v 0.1 1.3 0.6
v 0.1 1.6 0.5
v 0.1 1.6 -5.96046e-08
v 0.1 1.8 0.5
v 0.1 1.8 -5.96046e-08
v 0.2 0 0.6
v 0.2 0 0.5
v 0.2 0.1 0.6
v 0.2 0.1 0.5
v 0.3 0.1 0.3
v 0.3 0.1 0.2
v 0.3 0.5 0.6
v 0.3 0.5 0.3
v 0.3 0.5 0.2
v 0.3 0.5 -0.5
v 0.3 0.6 0.4
v 0.3 0.6 -0.1
v 0.3 0.9 0.4
v 0.3 0.9 -0.1
v 0.3 0.9 -0.5
v 0.3 1.3 0.4
v 0.3 1.3 0.3
v 0.3 1.4 0.4
v 0.3 1.4 0.3
v 0.3 1.6 0.6
v 0.3 1.6 -0.1
v 0.4 0 0.6
v 0.4 0 0.1
v 0.4 0.1 0.6
v 0.4 0.1 0.1
v 0.6 0.6 0.4
v 0.6 0.6 -0.1
v 0.6 0.9 0.4
v 0.6 0.9 -0.1
v -0.1 1.1 0.8
v -0.1 1.3 0.8
v 0.1 1.1 0.8
v 0.1 1.3 0.8
v -0.1 1 0.7
v -0.1 1.1 0.7
v 0.1 1 0.7
v 0.1 1.1 0.7
v -0.4 0 0.6
v -0.4 0.1 0.6
v -0.3 0 0.6
v -0.3 0.1 0.6
v -0.3 0.5 0.6
v -0.3 1.6 0.6
v -0.2 0 0.6
v -0.2 0.1 0.6
v -0.1 0 0.6
v -0.1 0.1 0.6
v -0.1 1 0.6
v -0.1 1.1 0.6
v -0.1 1.3 0.6
v 0.1 0 0.6
v 0.1 0.1 0.6
v 0.1 1 0.6
v 0.1 1.1 0.6
v 0.1 1.3 0.6
v 0.2 0 0.6
v 0.2 0.1 0.6
v 0.3 0 0.6
v 0.3 0.1 0.6
v 0.3 0.5 0.6
v 0.3 1.6 0.6
v 0.4 0 0.6
v 0.4 0.1 0.6
v -0.3 0 0.5
v -0.3 0.1 0.5
v -0.2 0 0.5
v -0.2 0.1 0.5
v -0.1 1.6 0.5
v -0.1 1.8 0.5
v 0.1 1.6 0.5
v 0.1 1.8 0.5
v 0.2 0 0.5
v 0.2 0.1 0.5
v 0.3 0 0.5
v 0.3 0.1 0.5
v -0.6 0.6 0.4
v -0.6 0.9 0.4
v -0.3 0.6 0.4
v -0.3 0.9 0.4
v 0.3 0.6 0.4
v 0.3 0.9 0.4
v 0.6 0.6 0.4
v 0.6 0.9 0.4
v -0.3 0.1 0.3
v -0.3 0.5 0.3
v -0.2 0.1 0.3
v -0.2 0.5 0.3
v 0.2 0.1 0.3
v 0.2 0.5 0.3
v 0.3 0.1 0.3
v 0.3 0.5 0.3
v -0.3 0.1 0.2
v -0.3 0.5 0.2
v -0.2 0.1 0.2
v -0.2 0.5 0.2
v 0.2 0.1 0.2
v 0.2 0.5 0.2
v 0.3 0.1 0.2
v 0.3 0.5 0.2
v -0.4 0 0.1
v -0.4 0.1 0.1
v -0.1 0 0.1
v -0.1 0.1 0.1
v 0.1 0 0.1
v 0.1 0.1 0.1
v 0.4 0 0.1
v 0.4 0.1 0.1
v -0.1 1.6 -5.96046e-08
v -0.1 1.8 -5.96046e-08
v 0.1 1.6 -5.96046e-08
v 0.1 1.8 -5.96046e-08
v -0.6 0.6 -0.1
v -0.6 0.9 -0.1
v -0.3 0.6 -0.1
v -0.3 0.9 -0.1
v -0.3 1.6 -0.1
v 0.3 0.6 -0.1
v 0.3 0.9 -0.1
v 0.3 1.6 -0.1
v 0.6 0.6 -0.1
v 0.6 0.9 -0.1
v -0.3 0.5 -0.5
v -0.3 0.9 -0.5
v 0.3 0.5 -0.5
v 0.3 0.9 -0.5
v -0.4 0 0.6
v -0.3 0 0.6
v -0.2 0 0.6
v -0.1 0 0.6
v 0.1 0 0.6
v 0.2 0 0.6
v 0.3 0 0.6
v 0.4 0 0.6
v -0.3 0 0.5
v -0.2 0 0.5
v 0.2 0 0.5
v 0.3 0 0.5
v -0.4 0 0.1
v -0.1 0 0.1
v 0.1 0 0.1
v 0.4 0 0.1
v -0.3 0.5 0.6
v 0.3 0.5 0.6
v -0.3 0.5 0.3
v -0.2 0.5 0.3
v 0.2 0.5 0.3
v 0.3 0.5 0.3
v -0.3 0.5 0.2
v -0.2 0.5 0.2
v 0.2 0.5 0.2
v 0.3 0.5 0.2
v -0.3 0.5 -0.5
v 0.3 0.5 -0.5
v -0.6 0.6 0.4
v -0.3 0.6 0.4
v 0.3 0.6 0.4
v 0.6 0.6 0.4
v -0.6 0.6 -0.1
v -0.3 0.6 -0.1
v 0.3 0.6 -0.1
v 0.6 0.6 -0.1
v -0.1 1 0.7
v 0.1 1 0.7
v -0.1 1 0.6
v 0.1 1 0.6
v -0.1 1.1 0.8
v 0.1 1.1 0.8
v -0.1 1.1 0.7
v 0.1 1.1 0.7
v -0.4 0.1 0.6
v -0.3 0.1 0.6
v -0.2 0.1 0.6
v -0.1 0.1 0.6
v 0.1 0.1 0.6
v 0.2 0.1 0.6
v 0.3 0.1 0.6
v 0.4 0.1 0.6
v -0.3 0.1 0.5
v -0.2 0.1 0.5
v 0.2 0.1 0.5
v 0.3 0.1 0.5
v -0.3 0.1 0.3
v -0.2 0.1 0.3
v 0.2 0.1 0.3
v 0.3 0.1 0.3
v -0.3 0.1 0.2
v -0.2 0.1 0.2
v 0.2 0.1 0.2
v 0.3 0.1 0.2
v -0.4 0.1 0.1
v -0.1 0.1 0.1
v 0.1 0.1 0.1
v 0.4 0.1 0.1
v -0.6 0.9 0.4
v -0.3 0.9 0.4
v 0.3 0.9 0.4
v 0.6 0.9 0.4
v -0.6 0.9 -0.1
v -0.3 0.9 -0.1
v 0.3 0.9 -0.1
v 0.6 0.9 -0.1
v -0.3 0.9 -0.5
v 0.3 0.9 -0.5
v -0.1 1.3 0.8
v 0.1 1.3 0.8
v -0.1 1.3 0.6
v 0.1 1.3 0.6
v -0.3 1.6 0.6
v 0.3 1.6 0.6
v -0.1 1.6 0.5
v 0.1 1.6 0.5
v -0.1 1.6 -5.96046e-08
v 0.1 1.6 -5.96046e-08
v -0.3 1.6 -0.1
v 0.3 1.6 -0.1
v -0.1 1.8 0.5
v 0.1 1.8 0.5
v -0.1 1.8 -5.96046e-08
v 0.1 1.8 -5.96046e-08

# faces
f 3/3/1 2/3/1 1/3/1
f 4/3/1 2/3/1 3/3/1
f 7/1/1 6/1/1 5/1/1
f 8/1/1 6/1/1 7/1/1
f 12/1/1 10/1/1 9/1/1
f 13/1/1 10/1/1 12/1/1
f 15/3/1 12/3/1 11/3/1
f 15/3/1 14/3/1 13/3/1
f 15/3/1 13/3/1 12/3/1
f 16/3/1 14/3/1 15/3/1
f 17/3/1 15/3/1 11/3/1
f 18/3/1 14/3/1 16/3/1
f 19/3/1 14/3/1 18/3/1
f 20/3/1 17/3/1 11/3/1
f 20/3/1 18/3/1 17/3/1
f 21/3/1 18/3/1 20/3/1
f 22/3/1 20/3/1 11/3/1
f 22/4/1 21/4/1 20/4/1
f 23/3/1 18/3/1 21/3/1
f 23/4/1 21/4/1 22/4/1
f 24/3/1 22/3/1 11/3/1
f 24/3/1 23/3/1 22/3/1
f 25/3/1 18/3/1 23/3/1
f 25/3/1 23/3/1 24/3/1
f 28/1/1 27/1/1 26/1/1
f 29/1/1 27/1/1 28/1/1
f 33/2/1 31/2/1 30/2/1
f 34/2/1 31/2/1 33/2/1
f 35/1/1 33/1/1 32/1/1
f 35/1/1 34/1/1 33/1/1
f 36/1/1 34/1/1 35/1/1
f 39/2/1 38/2/1 37/2/1
f 40/2/1 38/2/1 39/2/1
f 43/1/1 42/1/1 41/1/1
f 44/1/1 42/1/1 43/1/1
f 47/1/1 46/1/1 45/1/1
f 48/1/1 46/1/1 47/1/1
f 51/1/1 50/1/1 49/1/1
f 52/1/1 50/1/1 51/1/1
f 53/1/2 54/1/2 55/1/2
f 55/1/2 54/1/2 56/1/2
f 57/1/2 58/1/2 59/1/2
f 59/1/2 58/1/2 60/1/2
f 61/1/2 62/1/2 63/1/2
f 63/1/2 62/1/2 64/1/2
f 65/2/2 66/2/2 68/2/2
f 68/2/2 66/2/2 69/2/2
f 67/1/2 68/1/2 70/1/2
f 68/1/2 69/1/2 70/1/2
f 70/1/2 69/1/2 71/1/2
f 72/2/2 73/2/2 74/2/2
f 74/2/2 73/2/2 75/2/2
f 76/1/2 77/1/2 78/1/2
f 78/1/2 77/1/2 79/1/2
f 80/1/2 81/1/2 83/1/2
f 83/1/2 81/1/2 84/1/2
f 82/3/2 83/3/2 86/3/2
f 84/3/2 85/3/2 86/3/2
f 83/3/2 84/3/2 86/3/2
f 86/3/2 85/3/2 87/3/2
f 82/3/2 86/3/2 88/3/2
f 87/3/2 85/3/2 89/3/2
f 89/3/2 85/3/2 90/3/2
f 82/3/2 88/3/2 91/3/2
f 88/3/2 89/3/2 91/3/2
f 91/3/2 89/3/2 92/3/2
f 82/3/2 91/3/2 93/3/2
f 91/4/2 92/4/2 93/4/2
f 92/3/2 89/3/2 94/3/2
f 93/4/2 92/4/2 94/4/2
f 82/3/2 93/3/2 95/3/2
f 93/3/2 94/3/2 95/3/2
f 94/3/2 89/3/2 96/3/2
f 95/3/2 94/3/2 96/3/2
f 97/1/2 98/1/2 99/1/2
f 99/1/2 98/1/2 100/1/2
f 101/3/2 102/3/2 103/3/2
f 103/3/2 102/3/2 104/3/2
f 107/1/3 106/1/3 105/1/3
f 108/1/3 106/1/3 107/1/3
f 111/2/3 110/2/3 109/2/3
f 112/2/3 110/2/3 111/2/3
f 115/1/3 114/1/3 113/1/3
f 116/1/3 114/1/3 115/1/3
f 121/1/3 120/1/3 119/1/3
f 122/1/3 120/1/3 121/1/3
f 123/3/3 118/3/3 117/3/3
f 124/3/3 118/3/3 123/3/3
f 125/3/3 118/3/3 124/3/3
f 128/3/3 123/3/3 117/3/3
f 130/3/3 118/3/3 125/3/3
f 131/1/3 127/1/3 126/1/3
f 132/1/3 127/1/3 131/1/3
f 135/3/3 129/3/3 128/3/3
f 135/3/3 130/3/3 129/3/3
f 135/3/3 128/3/3 117/3/3
f 136/3/3 118/3/3 130/3/3
f 136/3/3 130/3/3 135/3/3
f 137/1/3 134/1/3 133/1/3
f 138/1/3 134/1/3 137/1/3
f 141/1/3 140/1/3 139/1/3
f 142/1/3 140/1/3 141/1/3
f 145/2/3 144/2/3 143/2/3
f 146/2/3 144/2/3 145/2/3
f 149/1/3 148/1/3 147/1/3
f 150/1/3 148/1/3 149/1/3
f 153/3/3 152/3/3 151/3/3
f 154/3/3 152/3/3 153/3/3
f 157/3/3 156/3/3 155/3/3
f 158/3/3 156/3/3 157/3/3
f 161/1/3 160/1/3 159/1/3
f 162/1/3 160/1/3 161/1/3
f 165/1/3 164/1/3 163/1/3
f 166/1/3 164/1/3 165/1/3
f 167/1/4 168/1/4 169/1/4
f 169/1/4 168/1/4 170/1/4
f 171/1/4 172/1/4 173/1/4
f 173/1/4 172/1/4 174/1/4
f 175/1/4 176/1/4 177/1/4
f 177/1/4 176/1/4 178/1/4
f 179/1/4 180/1/4 181/1/4
f 181/1/4 180/1/4 182/1/4
f 183/2/4 184/2/4 185/2/4
f 185/2/4 184/2/4 186/2/4
f 187/3/4 188/3/4 189/3/4
f 189/3/4 188/3/4 190/3/4
f 190/3/4 191/3/4 193/3/4
f 193/3/4 191/3/4 194/3/4
f 192/3/4 193/3/4 195/3/4
f 195/3/4 193/3/4 196/3/4
f 197/3/4 198/3/4 199/3/4
f 199/3/4 198/3/4 200/3/4
f 209/1/5 202/1/5 201/1/5
f 210/1/5 204/1/5 203/1/5
f 211/1/5 206/1/5 205/1/5
f 212/1/5 208/1/5 207/1/5
f 213/1/5 209/1/5 201/1/5
f 213/1/5 210/1/5 209/1/5
f 214/1/5 204/1/5 210/1/5
f 214/1/5 210/1/5 213/1/5
f 215/1/5 211/1/5 205/1/5
f 215/1/5 212/1/5 211/1/5
f 216/1/5 208/1/5 212/1/5
f 216/1/5 212/1/5 215/1/5
f 219/3/5 218/3/5 217/3/5
f 220/3/5 218/3/5 219/3/5
f 221/3/5 218/3/5 220/3/5
f 222/3/5 218/3/5 221/3/5
f 224/3/5 221/3/5 220/3/5
f 225/3/5 221/3/5 224/3/5
f 227/3/5 224/3/5 223/3/5
f 227/3/5 226/3/5 225/3/5
f 227/3/5 225/3/5 224/3/5
f 228/3/5 226/3/5 227/3/5
f 233/3/5 230/3/5 229/3/5
f 234/3/5 230/3/5 233/3/5
f 235/3/5 232/3/5 231/3/5
f 236/3/5 232/3/5 235/3/5
f 239/2/5 238/2/5 237/2/5
f 240/2/5 238/2/5 239/2/5
f 243/1/5 242/1/5 241/1/5
f 244/1/5 242/1/5 243/1/5
f 245/1/6 246/1/6 253/1/6
f 247/1/6 248/1/6 254/1/6
f 249/1/6 250/1/6 255/1/6
f 251/1/6 252/1/6 256/1/6
f 245/1/6 253/1/6 257/1/6
f 253/1/6 254/1/6 257/1/6
f 254/1/6 248/1/6 258/1/6
f 257/1/6 254/1/6 258/1/6
f 249/1/6 255/1/6 259/1/6
f 255/1/6 256/1/6 259/1/6
f 256/1/6 252/1/6 260/1/6
f 259/1/6 256/1/6 260/1/6
f 245/1/6 257/1/6 261/1/6
f 258/1/6 248/1/6 262/1/6
f 249/1/6 259/1/6 263/1/6
f 260/1/6 252/1/6 264/1/6
f 245/1/6 261/1/6 265/1/6
f 261/1/6 262/1/6 265/1/6
f 262/1/6 248/1/6 266/1/6
f 265/1/6 262/1/6 266/1/6
f 263/1/6 264/1/6 267/1/6
f 249/1/6 263/1/6 267/1/6
f 264/1/6 252/1/6 268/1/6
f 267/1/6 264/1/6 268/1/6
f 269/3/6 270/3/6 273/3/6
f 273/3/6 270/3/6 274/3/6
f 271/3/6 272/3/6 275/3/6
f 275/3/6 272/3/6 276/3/6
f 274/3/6 275/3/6 277/3/6
f 277/3/6 275/3/6 278/3/6
f 279/1/6 280/1/6 281/1/6
f 281/1/6 280/1/6 282/1/6
f 283/3/6 284/3/6 285/3/6
f 285/3/6 284/3/6 286/3/6
f 283/3/6 285/3/6 287/3/6
f 286/3/6 284/3/6 288/3/6
f 283/3/6 287/3/6 289/3/6
f 287/3/6 288/3/6 289/3/6
f 288/3/6 284/3/6 290/3/6
f 289/3/6 288/3/6 290/3/6
f 291/2/6 292/2/6 293/2/6
f 293/2/6 292/2/6 294/2/6
